<svg t="1665369575694" class="icon" viewBox="0 0 1024 1024" version="1.1" xmlns="http://www.w3.org/2000/svg" p-id="4621"
    width="81" height="81">
    <path
        d="M950 342.8c-18.2 0-33 14.8-33 33v567.1c0 8.3-6.7 15-15 15H86.5c-8.3 0-15-6.7-15-15V127.4c0-8.3 6.7-15 15-15h485.7c18.2 0 33-14.8 33-33s-14.8-33-33-33H86.5c-44.7 0-81 36.3-81 81v815.5c0 44.7 36.3 81 81 81H902c44.6 0 80.9-36.3 80.9-81V375.8c0-18.2-14.7-33-32.9-33z"
        p-id="4622"></path>
    <path
        d="M206.4 879.9H806c18.2 0 33-14.8 33-33s-14.8-33-33-33H206.4c-18.2 0-33 14.8-33 33s14.8 33 33 33zM1018.3 158.6c-1.9-18.7-10.9-35.6-25.5-47.6l-116-95c-30-24.6-74.5-20.2-99.2 9.8L407.8 477.1c-8 9.8-13.3 21.7-15.2 34.3l-28.5 193.7c-2.1 14.2 3.3 28.1 14.4 37.2 7.4 6.1 16.4 9.2 25.6 9.2 4.6 0 9.2-0.8 13.7-2.4l184.3-66c12-4.3 22.7-11.8 30.7-21.7l369.8-451.2c12-14.5 17.6-32.9 15.7-51.6zM579.9 621.1l-144.2 51.6 23.1-153.9 1.1-1.3L583 618.4l-1.1 1.3c-0.5 0.6-1.2 1.1-2 1.4z m371.8-452.7l-326.9 399-123-100.8 327-399c0.8-1 2.2-1.5 3.6-1.5 1 0 2 0.3 2.7 0.9l116 95.1c1.6 1.3 2 4.7 0.6 6.3z"
        p-id="4623"></path>
</svg>