<svg t="1665392234027" class="icon" viewBox="0 0 1024 1024" version="1.1" xmlns="http://www.w3.org/2000/svg" p-id="1906"
    width="81" height="81">
    <path
        d="M874 193.95c44.112 0 80 35.888 80 80v492.284c0 44.108-35.888 80-80 80H150c-44.112 0-80-35.892-80-80V273.95c0-44.112 35.888-80 80-80h724m0-70H150c-82.843 0-150 67.157-150 150v492.284c0 82.842 67.157 150 150 150h724c82.843 0 150-67.158 150-150V273.95c0-82.844-67.157-150-150-150z"
        fill="" p-id="1907"></path>
    <path
        d="M975.535 760.004c-12.788 0.001-25.334-6.198-32.939-17.649-31.491-47.411-65.266-72.051-100.386-73.234a86.678 86.678 0 0 0-2.837-0.047c-64.66 0-122.938 73.691-123.517 74.446a39.503 39.503 0 0 1-59.676 3.518L379.178 462.186 76.152 732.954c-16.266 14.537-41.236 13.133-55.773-3.135-14.536-16.268-13.132-41.238 3.135-55.773l331.263-296c15.784-14.104 39.88-13.258 54.637 1.917L683.87 662.194c6.639-6.299 14.223-13.01 22.615-19.672 45.082-35.782 92.933-53.873 138.387-52.356 29.838 1.006 58.547 10.234 85.328 27.429 28.191 18.101 54.503 45.37 78.203 81.052 12.07 18.172 7.123 42.688-11.049 54.758a39.335 39.335 0 0 1-21.819 6.599zM732.5 481.5c-67.822 0-123-55.178-123-123s55.178-123 123-123 123 55.178 123 123-55.178 123-123 123z m0-166c-23.71 0-43 19.29-43 43s19.29 43 43 43 43-19.29 43-43-19.29-43-43-43z"
        fill="" p-id="1908"></path>
</svg>