<svg t="1665372953125" class="icon" viewBox="0 0 1026 1024" version="1.1" xmlns="http://www.w3.org/2000/svg" p-id="6599"
    width="81" height="81">
    <path
        d="M420.864 448.512l-164.864 140.288 0-187.392 185.344-162.816 7.168 8.192 164.864 193.536 197.632-205.824-106.496-105.472 317.44-2.048 0 315.392-107.52-105.472-313.344 326.656-3.072-7.168zM928.768 703.488q19.456 0 37.376 7.68t30.72 20.48 20.48 30.72 7.68 37.376q0 20.48-7.68 37.888t-20.48 30.208-30.72 20.48-37.376 7.68l-832.512 0q-20.48 0-37.888-7.68t-30.208-20.48-20.48-30.208-7.68-37.888l0-641.024q0-19.456 7.68-36.864t20.48-30.208 30.208-20.48 37.888-7.68q19.456 0 37.376 7.68t30.72 20.48 20.48 30.208 7.68 36.864l0 481.28 4.096 0-4.096 3.072 0 60.416 736.256 0z"
        p-id="6600"></path>
</svg>